# xmcd
#
# Track frame offsets:
#	150
#	15600
#	17532
#	36240
#	37317
#	52770
#	56622
#	70795
#	72150
#	92507
#	95342
#	114280
#	115210
#	140610
#	157455
#	160505
#	177722
#	179050
#	190762
#	199885
#	218730
#	242430
#	244075
#	263380
#	264310
#
# Disc length: 3987 seconds
#
# Revision: 4
# Processed by: cddbd v1.5.2PL0 Copyright (c) Steve Scherf et al.
# Submitted via: EZCDAudioConverter 2.2.0.1
#
DISCID=5b0f9119
DTITLE=Columbia Records Radio Hour - Volume 1
DYEAR=1994
DGENRE=Country
TTITLE0=Bruce Cockburn w. Bob Wassermann - Lord of the Starfields
TTITLE1=Columbia Records Radio Hour - Intro
TTITLE2=Bruce Cockburn w. Bob Wassermann - Lovers In A Dangerous Time
TTITLE3=Columbia Records Radio Hour - Intro
TTITLE4=James McMurtry - Too Long In The Wasteland
TTITLE5=Columbia Records Radio Hour - Intro
TTITLE6=James McMurtry w. Jules Shear - Safeside
TTITLE7=Columbia Records Radio Hour - Intro
TTITLE8=Shawn Colvin - Polaroids
TTITLE9=Columbia Records Radio Hour - Intro
TTITLE10=Shawn Colvin w. Mary Chapin Carpenter - Shotgun Down The Avalanche
TTITLE11=Columbia Records Radio Hour - Intro
TTITLE12=Mary Chapin Carpenter w. Shawn Colvin - Come On Come On
TTITLE13=Darden Smith w. Dennis McDermott and Zev Katz - The Levee Song
TTITLE14=Columbia Records Radio Hour - Intro
TTITLE15=Rosanne Cash - What We Really Want
TTITLE16=Columbia Records Radio Hour - Intro
TTITLE17=Rosanne Cash w. John Leventhal - Wouldn't It Be Lovely
TTITLE18=Peter Himmelman - Intro
TTITLE19=Peter Himmelman - Raina
TTITLE20=Leonard Cohen - I'm Your Man
TTITLE21=Columbia Records Radio Hour - Intro
TTITLE22=Leonard Cohen - Coming Back To You
TTITLE23=Columbia Records Radio Hour - Intro
TTITLE24=Bruce Cockburn w. Bob Wassermann and Friends - Cry of A Tiny Babe
EXTD=
EXTT0=
EXTT1=
EXTT2=
EXTT3=
EXTT4=
EXTT5=
EXTT6=
EXTT7=
EXTT8=
EXTT9=
EXTT10=
EXTT11=
EXTT12=
EXTT13=
EXTT14=
EXTT15=
EXTT16=
EXTT17=
EXTT18=
EXTT19=
EXTT20=
EXTT21=
EXTT22=
EXTT23=
EXTT24=
PLAYORDER=
